HIERARCHY
ROOT Hips
{
    OFFSET 0.000000 0.000000 0.000000
    CHANNELS 6 Xposition Yposition Zposition Zrotation Xrotation Yrotation
    JOINT Spine
    {
        OFFSET -0.000000 14.517291 0.000000
        CHANNELS 3 Zrotation Xrotation Yrotation
        JOINT Spine1
        {
            OFFSET -0.000000 37.558300 0.000000
            CHANNELS 3 Zrotation Xrotation Yrotation
            JOINT Neck
            {
                OFFSET -0.000000 37.404057 3.400369
                CHANNELS 3 Zrotation Xrotation Yrotation
                JOINT Head
                {
                    OFFSET -0.000000 24.785618 -3.540803
                    CHANNELS 3 Zrotation Xrotation Yrotation
                    End Site
                    {
                        OFFSET -0.000000 35.408028 0.000000
                    }
                }
            }
            JOINT LeftShoulder
            {
                OFFSET 6.992933 33.973492 -0.192664
                CHANNELS 3 Zrotation Xrotation Yrotation
                JOINT LeftArm
                {
                    OFFSET 21.527611 0.000000 0.000000
                    CHANNELS 3 Zrotation Xrotation Yrotation
                    JOINT LeftForeArm
                    {
                        OFFSET 56.353916 0.000000 0.000000
                        CHANNELS 3 Zrotation Xrotation Yrotation
                        JOINT LeftHand
                        {
                            OFFSET 47.774071 0.000000 0.000000
                            CHANNELS 3 Zrotation Xrotation Yrotation
                            End Site
                            {
                                OFFSET 26.556021 0.000000 0.000000
                            }
                        }
                    }
                }
            }
            JOINT RightShoulder
            {
                OFFSET -7.065357 33.973492 -0.192664
                CHANNELS 3 Zrotation Xrotation Yrotation
                JOINT RightArm
                {
                    OFFSET -21.527611 0.000000 0.000000
                    CHANNELS 3 Zrotation Xrotation Yrotation
                    JOINT RightForeArm
                    {
                        OFFSET -56.353916 0.000000 0.000000
                        CHANNELS 3 Zrotation Xrotation Yrotation
                        JOINT RightHand
                        {
                            OFFSET -47.774071 0.000000 0.000000
                            CHANNELS 3 Zrotation Xrotation Yrotation
                            End Site
                            {
                                OFFSET -26.556021 0.000000 0.000000
                            }
                        }
                    }
                }
            }
        }
    }
    JOINT LeftUpLeg
    {
        OFFSET 17.704014 0.000000 0.000000
        CHANNELS 3 Zrotation Xrotation Yrotation
        JOINT LeftLeg
        {
            OFFSET -0.000000 -81.181816 0.000000
            CHANNELS 3 Zrotation Xrotation Yrotation
            JOINT LeftFoot
            {
                OFFSET -0.000000 -62.821102 0.000000
                CHANNELS 3 Zrotation Xrotation Yrotation
                JOINT LeftToeBase
                {
                    OFFSET -0.000000 -11.507608 26.556021
                    CHANNELS 3 Zrotation Xrotation Yrotation
                    End Site
                    {
                        OFFSET -0.000000 0.000000 7.081605
                    }
                }
            }
        }
    }
    JOINT RightUpLeg
    {
        OFFSET -17.704014 0.000000 0.000000
        CHANNELS 3 Zrotation Xrotation Yrotation
        JOINT RightLeg
        {
            OFFSET -0.000000 -81.181816 0.000000
            CHANNELS 3 Zrotation Xrotation Yrotation
            JOINT RightFoot
            {
                OFFSET -0.000000 -62.821102 0.000000
                CHANNELS 3 Zrotation Xrotation Yrotation
                JOINT RightToeBase
                {
                    OFFSET -0.000000 -11.507608 26.556021
                    CHANNELS 3 Zrotation Xrotation Yrotation
                    End Site
                    {
                        OFFSET -0.000000 0.000000 7.081605
                    }
                }
            }
        }
    }
}
MOTION
Frames:    9
Frame Time:    0.008333
26.166014    153.854065    -104.071617    0.157657    -6.321177    33.678024    -4.018919    0.315893    -9.318253    -1.957787    0.037367    -3.112833    7.273147    3.018454    -12.360896    8.254497    7.570105    -13.144759    6.685759    10.073785    -19.597746    -28.737766    21.177248    -49.400013    -3.436740    -10.900852    -105.665680    5.502106    -15.765924    -9.649851    -11.452862    -0.055186    -15.671009    19.167433    -3.946033    8.073180    -34.551735    -31.761238    48.122070    7.420248    -15.187432    32.136990    14.953483    2.272024    4.273738    -15.856675    37.570400    -15.550289    9.681782    -30.961256    46.064167    0.000000    0.000000    0.000000    -19.168114    -17.283184    -9.871529    12.382827    31.928770    -12.957112    7.180975    1.531997    -16.505474    0.000000    0.000000    0.000000    
26.183969    153.845032    -104.068161    0.151119    -6.327466    33.659416    -4.006404    0.319179    -9.317776    -1.962968    0.043290    -3.112589    7.265686    3.012454    -12.360355    8.256342    7.606451    -13.146205    6.681132    10.069241    -19.592253    -28.743536    21.172295    -49.382408    -3.428137    -10.908442    -105.672127    5.498256    -15.762452    -9.644865    -11.455809    -0.030459    -15.679296    19.225283    -3.920348    8.120894    -34.560257    -31.765533    48.056389    7.399542    -15.218194    32.135162    14.962500    2.261787    4.277864    -15.886474    37.617516    -15.494790    9.673106    -30.983366    46.048676    0.000000    0.000000    0.000000    -19.203732    -17.272507    -9.797482    12.523449    31.904297    -12.969711    7.154473    1.512298    -16.569414    0.000000    0.000000    0.000000    
26.200953    153.832535    -104.069229    0.145457    -6.326418    33.634830    -4.004919    0.310075    -9.301864    -1.968044    0.063340    -3.106839    7.284212    3.029641    -12.366117    8.244583    7.592233    -13.153174    6.689804    10.056931    -19.607538    -28.766520    21.158577    -49.359444    -3.429334    -10.892108    -105.678047    5.518276    -15.749644    -9.641958    -11.431561    -0.000811    -15.694927    19.259737    -3.900107    8.191823    -34.583664    -31.757339    47.962482    7.369505    -15.240426    32.136108    14.964046    2.252080    4.286091    -15.918093    37.654911    -15.450637    9.687767    -30.999714    46.054981    0.000000    0.000000    0.000000    -19.210093    -17.288618    -9.810800    12.532855    31.916605    -12.979760    7.131383    1.523849    -16.557623    0.000000    0.000000    0.000000    
26.217175    153.818298    -104.073738    0.142291    -6.327507    33.615570    -3.999968    0.310746    -9.288661    -1.974802    0.078906    -3.102179    7.286410    3.032555    -12.368223    8.245064    7.591396    -13.155361    6.702507    10.052952    -19.604837    -28.778057    21.144270    -49.361755    -3.425080    -10.902411    -105.673599    5.462308    -15.750312    -9.661539    -11.401184    0.022659    -15.712388    19.266508    -3.896172    8.279676    -34.598850    -31.708939    47.859386    7.420166    -15.198455    32.187325    14.963742    2.241575    4.310566    -15.938392    37.698254    -15.416367    9.694481    -31.017368    46.058132    0.000000    0.000000    0.000000    -19.220989    -17.302107    -9.810514    12.542732    31.941515    -12.943869    7.128493    1.505692    -16.549004    0.000000    0.000000    0.000000    
26.232702    153.801529    -104.080368    0.137715    -6.324637    33.595230    -3.999405    0.299884    -9.280991    -1.970735    0.096140    -3.099237    7.202442    3.005703    -12.328932    8.417372    7.635412    -13.096314    6.699626    10.047768    -19.614544    -28.802219    21.103437    -49.332539    -3.442558    -10.859693    -105.664474    5.468915    -15.731030    -9.672826    -11.392074    0.053667    -15.682911    19.283014    -3.914325    8.345340    -34.611877    -31.634800    47.768593    7.433708    -15.135873    32.211433    14.959719    2.227475    4.328479    -15.954139    37.738853    -15.369189    9.709228    -31.038237    46.046658    0.000000    0.000000    0.000000    -19.230740    -17.330063    -9.789899    12.567254    31.968721    -12.998754    7.132082    1.506950    -16.518911    0.000000    0.000000    0.000000    
26.249582    153.781815    -104.091820    0.145313    -6.321905    33.575359    -4.009504    0.311250    -9.266952    -1.957882    0.110289    -3.094414    7.286771    3.095548    -12.372824    8.220666    7.493918    -13.150766    6.692494    10.036624    -19.601866    -28.808607    21.104336    -49.333397    -3.430984    -10.870469    -105.659180    5.446236    -15.725361    -9.683930    -11.377568    0.051601    -15.660684    19.266268    -3.924372    8.409367    -34.581097    -31.561934    47.712490    7.397536    -15.095762    32.256111    14.942389    2.218204    4.346930    -15.966084    37.779701    -15.319946    9.702167    -31.072327    46.035378    0.000000    0.000000    0.000000    -19.256498    -17.347916    -9.804976    12.578277    32.002174    -12.960634    7.122958    1.486271    -16.525675    0.000000    0.000000    0.000000    
26.266596    153.762207    -104.105293    0.152112    -6.314389    33.552288    -4.020836    0.303144    -9.244328    -1.949678    0.141984    -3.086255    7.268496    3.123747    -12.391501    8.233949    7.448255    -13.161886    6.692386    10.027936    -19.608213    -28.810772    21.098721    -49.329628    -3.427758    -10.889596    -105.655098    5.441712    -15.739598    -9.695105    -11.355133    0.065724    -15.644062    19.242939    -3.908605    8.495247    -34.583778    -31.516787    47.613277    7.389261    -15.076735    32.334122    14.923447    2.206146    4.376662    -15.970595    37.821266    -15.295959    9.704520    -31.104063    46.028255    0.000000    0.000000    0.000000    -19.285057    -17.369699    -9.772770    12.623427    32.019154    -13.000962    7.126225    1.473026    -16.529385    0.000000    0.000000    0.000000    
26.280249    153.740524    -104.123672    0.162342    -6.302629    33.529552    -4.039297    0.298017    -9.221218    -1.937612    0.166876    -3.078134    7.189528    3.084288    -12.354931    8.389502    7.482319    -13.107488    6.684824    10.024467    -19.617487    -28.821644    21.071598    -49.320980    -3.446457    -10.875319    -105.649765    5.459228    -15.750275    -9.685742    -11.344556    0.058863    -15.584922    19.222206    -3.893424    8.540682    -34.569656    -31.474279    47.544296    7.384991    -15.059081    32.372879    14.898587    2.186556    4.397418    -15.985105    37.868923    -15.238175    9.707556    -31.126070    46.001865    0.000000    0.000000    0.000000    -19.320402    -17.395750    -9.773480    12.651816    32.043518    -13.009383    7.109529    1.457829    -16.504204    0.000000    0.000000    0.000000    
26.293520    153.718185    -104.144264    0.173339    -6.291133    33.502342    -4.043583    0.301313    -9.197021    -1.939839    0.189359    -3.069682    7.239200    3.174154    -12.417627    8.243070    7.343101    -13.173982    6.679361    10.018592    -19.595425    -28.815292    21.065767    -49.340286    -3.464021    -10.869549    -105.664284    5.549592    -15.773598    -9.647372    -11.321171    0.065855    -15.551412    19.197281    -3.893255    8.633080    -34.594830    -31.412264    47.451618    7.401653    -15.007671    32.350918    14.873606    2.169935    4.408918    -16.005173    37.911411    -15.198136    9.722258    -31.154129    46.013683    0.000000    0.000000    0.000000    -19.351437    -17.420065    -9.768479    12.669953    32.062122    -13.018369    7.110605    1.438092    -16.481546    0.000000    0.000000    0.000000    
